<svg width="200" height="46" viewBox="0 0 200 46" fill="none" xmlns="http://www.w3.org/2000/svg">
<g clip-path="url(#clip0_11674_29598)">
<path d="M89.5428 22.0648H84.0124V16.6375H89.5428C91.4169 16.6375 92.5667 17.4178 92.5667 19.3225C92.5667 21.2272 91.5089 22.0648 89.5428 22.0648ZM96.9243 19.2307C96.9243 14.7328 93.6245 12.5298 89.6348 12.5298H79.7812V33.6538H84.0124V26.0464H88.278L92.0608 33.6538H96.9243L92.8771 25.4497C95.5676 24.3941 96.9243 22.3976 96.9243 19.2307Z" fill="black"/>
<path d="M106.352 23.9351C106.501 22.3402 107.444 21.1009 108.95 21.1009C110.824 21.1009 111.675 22.5237 111.79 23.9351H106.34H106.352ZM109.169 17.4751C105.145 17.4751 102.098 20.8829 102.098 25.748C102.098 30.613 104.995 33.9864 109.571 33.9864C111.687 33.9864 113.986 33.0456 115.251 31.4162L112.285 28.9378C111.675 29.6263 110.709 30.0508 109.56 30.0508C108.042 30.0508 106.444 29.2361 106.294 27.0675H115.791C115.826 26.7692 115.849 26.3446 115.849 25.7365C115.849 21.2042 113.4 17.4636 109.169 17.4636" fill="black"/>
<path d="M130.695 16.3851C132.604 16.3851 133.811 17.2342 134.57 18.6799L138.502 16.867C137.169 14.1247 134.754 12.1855 130.764 12.1855C125.234 12.1855 121.359 16.649 121.359 23.0745C121.359 29.5001 125.073 33.9635 130.615 33.9635C134.455 33.9635 136.996 32.1851 138.445 29.2018L134.881 27.0905C133.765 28.9608 132.639 29.7755 130.741 29.7755C127.568 29.7755 125.717 26.884 125.717 23.0745C125.717 19.2651 127.534 16.3736 130.707 16.3736" fill="black"/>
<path d="M148.63 12.5298H144.398V33.6538H148.63V12.5298Z" fill="black"/>
<path d="M165.624 22.0648H160.692V16.6375H165.555C167.429 16.6375 168.637 17.4866 168.637 19.3225C168.637 21.1584 167.579 22.0648 165.613 22.0648M165.705 12.5298H156.449V33.6538H160.68V26.1726H165.337C169.718 26.1726 172.983 24.1187 172.983 19.2307C172.983 14.7328 169.683 12.5298 165.693 12.5298" fill="black"/>
<path d="M182.079 29.5116V24.417H188.161V20.3093H182.079V16.6605H192.542V12.5298H177.848V33.6538H193.002V29.5116H182.079Z" fill="black"/>
<path d="M17.557 28.479H0V46.0001H17.557V28.479Z" fill="#7EA2D6"/>
<path d="M68.5037 0H56.0632H39.6445V46H56.0632L68.5037 0Z" fill="#24B092"/>
<path d="M35.1155 14.2625H17.5586V46H35.1155V14.2625Z" fill="#2A3281"/>
</g>
<defs>
<clipPath id="clip0_11674_29598">
<rect width="200" height="46" fill="white"/>
</clipPath>
</defs>
</svg>
